%FSLAX23Y23*%
%MOIN*%
G70*
G01*
G75*
G04 Layer_Physical_Order=1*
G04 Layer_Color=255*
%ADD10R,0.118X0.039*%
%ADD11R,0.118X0.059*%
%ADD12R,0.020X0.024*%
%ADD13C,0.010*%
%ADD14C,0.030*%
%ADD15C,0.060*%
%ADD16C,0.236*%
%ADD17C,0.039*%
G36*
X-90Y1190D02*
X1585D01*
Y-90D01*
X1550Y-125D01*
X1520Y-95D01*
X-90D01*
X-130Y1223D01*
X-125Y1225D01*
X-90Y1190D01*
D02*
G37*
%LPC*%
G36*
X1460Y1130D02*
X15D01*
X9Y1129D01*
X4Y1126D01*
X-6Y1116D01*
X-9Y1111D01*
X-10Y1105D01*
Y15D01*
X-10Y15D01*
X-10D01*
X-9Y9D01*
X-6Y4D01*
X4Y-6D01*
X4D01*
X4Y-6D01*
X4Y-6D01*
Y-6D01*
X9Y-9D01*
X15Y-10D01*
X1460D01*
X1466Y-9D01*
X1471Y-6D01*
X1471Y-6D01*
X1471Y-6D01*
X1486Y9D01*
X1489Y14D01*
X1490Y20D01*
X1490Y20D01*
X1490Y20D01*
Y20D01*
Y975D01*
Y1100D01*
X1489Y1106D01*
X1486Y1111D01*
X1471Y1126D01*
X1466Y1129D01*
X1460Y1130D01*
D02*
G37*
%LPD*%
G36*
X1460Y1094D02*
Y975D01*
X1460Y975D01*
X1460D01*
Y780D01*
X1337D01*
Y701D01*
X1460D01*
Y449D01*
X1337D01*
Y370D01*
X1460D01*
Y185D01*
X1455Y184D01*
X1452Y195D01*
X1444Y213D01*
X1434Y231D01*
X1421Y246D01*
X1406Y259D01*
X1388Y269D01*
X1370Y277D01*
X1350Y282D01*
X1330Y284D01*
X1310Y282D01*
X1290Y277D01*
X1272Y269D01*
X1254Y259D01*
X1239Y246D01*
X1226Y231D01*
X1215Y213D01*
X1208Y195D01*
X1203Y175D01*
X1201Y155D01*
X1203Y135D01*
X1208Y115D01*
X1215Y97D01*
X1226Y79D01*
X1239Y64D01*
X1254Y51D01*
X1272Y41D01*
X1290Y33D01*
X1310Y28D01*
X1330Y26D01*
X1350Y28D01*
X1370Y33D01*
X1388Y41D01*
X1406Y51D01*
X1421Y64D01*
X1434Y79D01*
X1444Y97D01*
X1452Y115D01*
X1455Y126D01*
X1460Y125D01*
Y26D01*
X1454Y20D01*
X21D01*
X20Y21D01*
Y1099D01*
X21Y1100D01*
X1454D01*
X1460Y1094D01*
D02*
G37*
%LPC*%
G36*
X980Y695D02*
X940D01*
Y678D01*
Y639D01*
X945D01*
Y606D01*
X940D01*
Y563D01*
Y524D01*
X945D01*
Y481D01*
X940D01*
Y465D01*
X678Y203D01*
X675Y205D01*
X665Y209D01*
X655Y210D01*
X645Y209D01*
X635Y205D01*
X626Y199D01*
X620Y190D01*
X616Y180D01*
X615Y170D01*
X616Y160D01*
X620Y150D01*
X626Y141D01*
X635Y135D01*
X645Y131D01*
X655Y130D01*
X665Y131D01*
X675Y135D01*
X684Y141D01*
X690Y150D01*
X694Y160D01*
X695Y170D01*
X695Y176D01*
X936Y417D01*
X940Y415D01*
Y399D01*
X980D01*
Y405D01*
X1134D01*
X1140Y406D01*
X1145Y410D01*
X1145Y410D01*
X1145Y410D01*
X1202Y467D01*
X1279D01*
Y526D01*
X1141D01*
Y467D01*
X1152D01*
X1154Y462D01*
X1127Y436D01*
X980D01*
Y438D01*
Y481D01*
X975D01*
Y524D01*
X980D01*
Y563D01*
Y569D01*
X1141D01*
Y545D01*
X1279D01*
Y605D01*
X1141D01*
Y600D01*
X980D01*
Y606D01*
X975D01*
Y639D01*
X980D01*
Y678D01*
Y695D01*
D02*
G37*
G36*
X1205Y649D02*
X1141D01*
Y624D01*
X1205D01*
Y649D01*
D02*
G37*
G36*
X160Y289D02*
X140Y287D01*
X120Y282D01*
X102Y275D01*
X84Y264D01*
X69Y251D01*
X56Y236D01*
X45Y218D01*
X38Y200D01*
X33Y180D01*
X31Y160D01*
X33Y140D01*
X38Y120D01*
X45Y102D01*
X56Y84D01*
X69Y69D01*
X84Y56D01*
X102Y45D01*
X120Y38D01*
X140Y33D01*
X160Y31D01*
X180Y33D01*
X200Y38D01*
X218Y45D01*
X236Y56D01*
X251Y69D01*
X264Y84D01*
X275Y102D01*
X282Y120D01*
X287Y140D01*
X289Y160D01*
X287Y180D01*
X282Y200D01*
X275Y218D01*
X264Y236D01*
X251Y251D01*
X236Y264D01*
X218Y275D01*
X200Y282D01*
X180Y287D01*
X160Y289D01*
D02*
G37*
G36*
X580Y195D02*
X570Y194D01*
X562Y188D01*
X556Y180D01*
X555Y170D01*
X556Y160D01*
X562Y152D01*
X570Y146D01*
X580Y145D01*
X590Y146D01*
X598Y152D01*
X604Y160D01*
X605Y170D01*
X604Y180D01*
X598Y188D01*
X590Y194D01*
X580Y195D01*
D02*
G37*
G36*
X980Y721D02*
X965D01*
Y705D01*
X980D01*
Y721D01*
D02*
G37*
G36*
X1325Y1089D02*
X1305Y1087D01*
X1285Y1082D01*
X1267Y1074D01*
X1249Y1064D01*
X1234Y1051D01*
X1221Y1036D01*
X1211Y1018D01*
X1203Y1000D01*
X1198Y980D01*
X1196Y960D01*
X1198Y940D01*
X1203Y920D01*
X1211Y902D01*
X1221Y884D01*
X1234Y869D01*
X1249Y856D01*
X1267Y845D01*
X1285Y838D01*
X1305Y833D01*
X1325Y831D01*
X1345Y833D01*
X1365Y838D01*
X1383Y845D01*
X1401Y856D01*
X1416Y869D01*
X1429Y884D01*
X1439Y902D01*
X1447Y920D01*
X1452Y940D01*
X1454Y960D01*
X1452Y980D01*
X1447Y1000D01*
X1439Y1018D01*
X1429Y1036D01*
X1416Y1051D01*
X1401Y1064D01*
X1383Y1074D01*
X1365Y1082D01*
X1345Y1087D01*
X1325Y1089D01*
D02*
G37*
G36*
X160Y1094D02*
X140Y1092D01*
X120Y1087D01*
X102Y1079D01*
X84Y1069D01*
X69Y1056D01*
X56Y1041D01*
X45Y1023D01*
X38Y1005D01*
X33Y985D01*
X31Y965D01*
X33Y945D01*
X38Y925D01*
X45Y907D01*
X56Y889D01*
X69Y874D01*
X84Y861D01*
X102Y850D01*
X120Y843D01*
X140Y838D01*
X160Y836D01*
X180Y838D01*
X200Y843D01*
X218Y850D01*
X236Y861D01*
X251Y874D01*
X264Y889D01*
X275Y907D01*
X282Y925D01*
X287Y945D01*
X289Y965D01*
X287Y985D01*
X282Y1005D01*
X275Y1023D01*
X264Y1041D01*
X251Y1056D01*
X236Y1069D01*
X218Y1079D01*
X200Y1087D01*
X180Y1092D01*
X160Y1094D01*
D02*
G37*
G36*
X955Y721D02*
X940D01*
Y705D01*
X955D01*
Y721D01*
D02*
G37*
G36*
X1279Y649D02*
X1215D01*
Y624D01*
X1279D01*
Y649D01*
D02*
G37*
G36*
X1205Y683D02*
X1141D01*
Y659D01*
X1205D01*
Y683D01*
D02*
G37*
G36*
X1279D02*
X1215D01*
Y659D01*
X1279D01*
Y683D01*
D02*
G37*
%LPD*%
D10*
X1210Y654D02*
D03*
Y575D02*
D03*
Y496D02*
D03*
Y654D02*
D03*
D11*
X1407Y740D02*
D03*
Y410D02*
D03*
D12*
X960Y545D02*
D03*
Y585D02*
D03*
X960Y460D02*
D03*
Y420D02*
D03*
X960Y660D02*
D03*
Y700D02*
D03*
D13*
X1134Y420D02*
X1210Y496D01*
X960Y420D02*
X1134D01*
X960Y460D02*
Y545D01*
X960Y585D02*
X1200D01*
X1210Y575D01*
X960Y585D02*
Y660D01*
X957Y460D02*
X960D01*
X667Y170D02*
X957Y460D01*
X655Y170D02*
X667D01*
D14*
X580D02*
D03*
D15*
X655D02*
D03*
D16*
X160Y160D02*
D03*
X1330Y155D02*
D03*
X160Y965D02*
D03*
X1325Y960D02*
D03*
D17*
X249Y160D02*
D03*
X223Y97D02*
D03*
X160Y71D02*
D03*
X97Y97D02*
D03*
X71Y160D02*
D03*
X160Y249D02*
D03*
X223Y223D02*
D03*
X97D02*
D03*
X1419Y155D02*
D03*
X1393Y92D02*
D03*
X1330Y66D02*
D03*
X1267Y92D02*
D03*
X1241Y155D02*
D03*
X1330Y244D02*
D03*
X1393Y218D02*
D03*
X1267D02*
D03*
X249Y965D02*
D03*
X223Y902D02*
D03*
X160Y876D02*
D03*
X97Y902D02*
D03*
X71Y965D02*
D03*
X160Y1054D02*
D03*
X223Y1028D02*
D03*
X97D02*
D03*
X1414Y960D02*
D03*
X1388Y897D02*
D03*
X1325Y871D02*
D03*
X1262Y897D02*
D03*
X1236Y960D02*
D03*
X1325Y1049D02*
D03*
X1388Y1023D02*
D03*
X1262D02*
D03*
M02*
