%FSLAX23Y23*%
%MOIN*%
G70*
G01*
G75*
G04 Layer_Color=16711935*
%ADD10R,0.118X0.039*%
%ADD11R,0.118X0.059*%
%ADD12R,0.020X0.024*%
%ADD13C,0.010*%
%ADD14C,0.030*%
%ADD15C,0.060*%
%ADD16C,0.236*%
%ADD17C,0.039*%
%ADD18C,0.005*%
%ADD19C,0.059*%
%ADD20R,0.126X0.047*%
%ADD21R,0.126X0.067*%
%ADD22R,0.028X0.032*%
%ADD23C,0.038*%
%ADD24C,0.068*%
D16*
X160Y160D02*
D03*
X1330Y155D02*
D03*
X160Y965D02*
D03*
X1325Y960D02*
D03*
D17*
X249Y160D02*
D03*
X223Y97D02*
D03*
X160Y71D02*
D03*
X97Y97D02*
D03*
X71Y160D02*
D03*
X160Y249D02*
D03*
X223Y223D02*
D03*
X97D02*
D03*
X1419Y155D02*
D03*
X1393Y92D02*
D03*
X1330Y66D02*
D03*
X1267Y92D02*
D03*
X1241Y155D02*
D03*
X1330Y244D02*
D03*
X1393Y218D02*
D03*
X1267D02*
D03*
X249Y965D02*
D03*
X223Y902D02*
D03*
X160Y876D02*
D03*
X97Y902D02*
D03*
X71Y965D02*
D03*
X160Y1054D02*
D03*
X223Y1028D02*
D03*
X97D02*
D03*
X1414Y960D02*
D03*
X1388Y897D02*
D03*
X1325Y871D02*
D03*
X1262Y897D02*
D03*
X1236Y960D02*
D03*
X1325Y1049D02*
D03*
X1388Y1023D02*
D03*
X1262D02*
D03*
D19*
X249Y160D02*
G03*
X249Y160I-89J0D01*
G01*
X1419Y155D02*
G03*
X1419Y155I-89J0D01*
G01*
X249Y965D02*
G03*
X249Y965I-89J0D01*
G01*
X1414Y960D02*
G03*
X1414Y960I-89J0D01*
G01*
D23*
X580Y170D02*
D03*
D24*
X655D02*
D03*
M02*
