M48
;Layer_Color=9474304
;FILE_FORMAT=2:3
INCH,TZ
;TYPE=PLATED
T1F00S00C0.015
T2F00S00C0.020
T3F00S00C0.030
T4F00S00C0.118
%
T01
X580Y170
T02
X1267Y92
X1330Y66
X1393Y92
X1419Y155
X1393Y218
X1330Y244
X1267Y218
X1241Y155
X249Y160
X223Y97
X160Y71
X97Y97
X71Y160
X97Y223
X160Y249
X223Y223
Y902
X249Y965
X223Y1028
X160Y1054
X97Y1028
X71Y965
X97Y902
X160Y876
X1262Y897
X1325Y871
X1388Y897
X1414Y960
X1388Y1023
X1325Y1049
X1262Y1023
X1236Y960
T03
X655Y170
T04
X1330Y155
X160Y160
Y965
X1325Y960
M30
